<svg xmlns="http://www.w3.org/2000/svg" width="600" height="400" viewBox="0 0 600 400">
  <defs>
    <linearGradient id="g1" x1="0%" y1="0%" x2="100%" y2="100%">
      <stop offset="0%" stop-color="#d946ef"/>
      <stop offset="50%" stop-color="#a855f7"/>
      <stop offset="100%" stop-color="#6366f1"/>
    </linearGradient>
  </defs>
  <rect width="600" height="400" fill="#f2f0ff"/>
  <rect x="0" y="0" width="600" height="140" fill="url(#g1)"/>
  <circle cx="300" cy="70" r="30" fill="#ffffff" opacity="0.9"/>
  <rect x="230" y="110" width="140" height="12" rx="6" fill="#ffffff"/>
  <rect x="255" y="128" width="90" height="8" rx="4" fill="#ffffff" opacity="0.8"/>
  <rect x="40" y="170" width="140" height="12" rx="3" fill="#4c1d95"/>
  <rect x="40" y="192" width="500" height="8" rx="3" fill="#c4b5fd"/>
  <rect x="40" y="208" width="460" height="8" rx="3" fill="#c4b5fd"/>
  <rect x="40" y="245" width="130" height="40" rx="20" fill="#ffffff"/>
  <rect x="190" y="245" width="130" height="40" rx="20" fill="#ffffff"/>
  <rect x="340" y="245" width="130" height="40" rx="20" fill="#ffffff"/>
  <rect x="40" y="310" width="150" height="12" rx="3" fill="#4c1d95"/>
  <rect x="40" y="332" width="520" height="40" rx="14" fill="#ffffff"/>
</svg>
