<svg xmlns="http://www.w3.org/2000/svg" width="600" height="400" viewBox="0 0 600 400">
  <rect width="600" height="400" fill="#ffffff"/>
  <rect x="0" y="0" width="200" height="400" fill="#111318"/>
  <circle cx="100" cy="70" r="28" fill="#fbbf24"/>
  <rect x="40" y="115" width="120" height="12" rx="3" fill="#ffffff"/>
  <rect x="40" y="135" width="90" height="8" rx="3" fill="#fbbf24"/>
  <rect x="40" y="180" width="120" height="6" rx="2" fill="#4b5563"/>
  <rect x="40" y="196" width="100" height="6" rx="2" fill="#4b5563"/>
  <rect x="40" y="230" width="80" height="8" rx="2" fill="#6b7280"/>
  <rect x="40" y="248" width="120" height="6" rx="2" fill="#fbbf24" opacity="0.6"/>
  <rect x="40" y="262" width="120" height="6" rx="2" fill="#374151"/>
  <rect x="40" y="276" width="120" height="6" rx="2" fill="#374151"/>
  <rect x="240" y="40" width="150" height="12" rx="3" fill="#111318"/>
  <rect x="240" y="64" width="320" height="8" rx="3" fill="#d1d5db"/>
  <rect x="240" y="80" width="300" height="8" rx="3" fill="#d1d5db"/>
  <rect x="240" y="120" width="4" height="90" fill="#fbbf24"/>
  <rect x="256" y="122" width="180" height="10" rx="3" fill="#111318"/>
  <rect x="256" y="140" width="120" height="7" rx="2" fill="#fbbf24"/>
  <rect x="256" y="156" width="300" height="7" rx="2" fill="#d1d5db"/>
  <rect x="256" y="170" width="280" height="7" rx="2" fill="#d1d5db"/>
  <rect x="240" y="240" width="150" height="10" rx="3" fill="#111318"/>
  <rect x="240" y="260" width="140" height="24" rx="6" fill="#f3f4f6"/>
  <rect x="390" y="260" width="140" height="24" rx="6" fill="#f3f4f6"/>
</svg>
