<svg xmlns="http://www.w3.org/2000/svg" width="600" height="400" viewBox="0 0 600 400">
  <rect width="600" height="400" fill="#f8fafc"/>
  <rect x="0" y="0" width="600" height="90" fill="#0f172a"/>
  <circle cx="60" cy="45" r="26" fill="#3b82f6"/>
  <rect x="100" y="28" width="180" height="14" rx="4" fill="#ffffff"/>
  <rect x="100" y="50" width="120" height="10" rx="3" fill="#93c5fd"/>
  <rect x="40" y="130" width="220" height="12" rx="3" fill="#0f172a"/>
  <rect x="40" y="152" width="520" height="8" rx="3" fill="#cbd5e1"/>
  <rect x="40" y="168" width="480" height="8" rx="3" fill="#cbd5e1"/>
  <rect x="40" y="184" width="500" height="8" rx="3" fill="#cbd5e1"/>
  <rect x="40" y="220" width="180" height="12" rx="3" fill="#0f172a"/>
  <rect x="40" y="242" width="260" height="10" rx="3" fill="#3b82f6"/>
  <rect x="40" y="258" width="520" height="8" rx="3" fill="#cbd5e1"/>
  <rect x="40" y="274" width="500" height="8" rx="3" fill="#cbd5e1"/>
  <rect x="40" y="310" width="150" height="12" rx="3" fill="#0f172a"/>
  <rect x="40" y="332" width="120" height="24" rx="12" fill="#dbeafe"/>
  <rect x="172" y="332" width="120" height="24" rx="12" fill="#dbeafe"/>
  <rect x="304" y="332" width="120" height="24" rx="12" fill="#dbeafe"/>
</svg>
